<svg width="82" height="82" viewBox="0 0 82 82" fill="none" xmlns="http://www.w3.org/2000/svg">
<path d="M77.9482 47.4525C77.9348 47.2538 77.9029 47.0568 77.853 46.8641L70.0677 26.133C71.4845 25.2165 72.6497 23.9604 73.4572 22.4787C74.2647 20.9971 74.6888 19.337 74.691 17.6496C74.691 16.7537 74.3351 15.8945 73.7016 15.261C73.0681 14.6275 72.2089 14.2716 71.313 14.2716C70.4171 14.2716 69.5579 14.6275 68.9244 15.261C68.2909 15.8945 67.935 16.7537 67.935 17.6496C67.9347 18.4024 67.6831 19.1335 67.2201 19.7271C66.757 20.3206 66.109 20.7425 65.3789 20.9259C64.6488 21.1092 63.8784 21.0436 63.1899 20.7393C62.5013 20.4351 61.9341 19.9096 61.5781 19.2463C60.7113 17.7076 59.4438 16.4326 57.9104 15.5567C56.3769 14.6808 54.6348 14.2367 52.8691 14.2716H44.289V10.8936C44.289 9.99773 43.9331 9.13852 43.2996 8.50502C42.6661 7.87152 41.8069 7.51563 40.911 7.51562C40.0151 7.51563 39.1559 7.87152 38.5224 8.50502C37.8889 9.13852 37.533 9.99773 37.533 10.8936V14.2716H28.9528C27.1872 14.2367 25.445 14.6808 23.9116 15.5567C22.3781 16.4326 21.1106 17.7076 20.2438 19.2463C19.8879 19.9096 19.3206 20.4351 18.6321 20.7393C17.9435 21.0436 17.1731 21.1092 16.443 20.9259C15.7129 20.7425 15.0649 20.3206 14.6019 19.7271C14.1388 19.1335 13.8872 18.4024 13.8869 17.6496C13.8869 16.7537 13.531 15.8945 12.8975 15.261C12.264 14.6275 11.4048 14.2716 10.5089 14.2716C9.61304 14.2716 8.75383 14.6275 8.12033 15.261C7.48683 15.8945 7.13093 16.7537 7.13093 17.6496C7.13314 19.337 7.55728 20.9971 8.36476 22.4787C9.17223 23.9604 10.3374 25.2165 11.7542 26.133L3.96912 46.8641C3.91915 47.0568 3.88727 47.2538 3.8739 47.4525C3.81457 47.6479 3.77407 47.8486 3.75293 48.0517C3.75293 48.083 3.76202 48.1119 3.76222 48.1432C3.76323 48.1877 3.77235 48.2288 3.77539 48.2731C3.82799 51.8161 5.27234 55.1961 7.79641 57.683C10.3205 60.1699 13.7216 61.5639 17.2649 61.5639C20.8083 61.5639 24.2094 60.1699 26.7335 57.683C29.2575 55.1961 30.7019 51.8161 30.7545 48.2731C30.7574 48.2288 30.7667 48.1877 30.7677 48.1432C30.7679 48.1119 30.777 48.083 30.777 48.0517C30.7559 47.8486 30.7154 47.6479 30.6561 47.4525C30.6428 47.2538 30.6109 47.0568 30.5609 46.8641L22.7666 26.1089C24.198 25.1953 25.376 23.9356 26.1916 22.4461C26.4864 21.9877 26.8969 21.6151 27.3817 21.366C27.8665 21.117 28.4085 21.0002 28.9528 21.0276H37.533V68.3197H27.399C26.5031 68.3197 25.6438 68.6756 25.0103 69.3091C24.3768 69.9426 24.021 70.8018 24.021 71.6977C24.021 72.5936 24.3768 73.4528 25.0103 74.0863C25.6438 74.7198 26.5031 75.0757 27.399 75.0757H54.423C55.3189 75.0757 56.1781 74.7198 56.8116 74.0863C57.4451 73.4528 57.801 72.5936 57.801 71.6977C57.801 70.8018 57.4451 69.9426 56.8116 69.3091C56.1781 68.6756 55.3189 68.3197 54.423 68.3197H44.289V21.0276H52.8691C53.4134 21.0003 53.9554 21.117 54.4402 21.3661C54.925 21.6151 55.3355 21.9877 55.6302 22.4461C56.4458 23.9356 57.6238 25.1953 59.0552 26.1089L51.2612 46.8641C51.2112 47.0568 51.1793 47.2538 51.166 47.4525C51.1066 47.6479 51.0661 47.8486 51.045 48.0517C51.045 48.083 51.0541 48.1119 51.0543 48.1432C51.0553 48.1877 51.0644 48.2288 51.0674 48.2731C51.12 51.8161 52.5644 55.1961 55.0885 57.683C57.6125 60.1699 61.0136 61.5639 64.557 61.5639C68.1004 61.5639 71.5015 60.1699 74.0255 57.683C76.5496 55.1961 77.994 51.8161 78.0465 48.2731C78.0494 48.2288 78.0587 48.1877 78.0597 48.1432C78.0599 48.1119 78.069 48.083 78.069 48.0517C78.0479 47.8486 78.0075 47.6479 77.9482 47.4525ZM17.2649 30.6736L22.5225 44.6737H12.0074L17.2649 30.6736ZM23.0841 51.4297C22.4879 52.4469 21.6387 53.2925 20.6191 53.8845C19.5994 54.4764 18.4439 54.7944 17.2649 54.8077C16.0794 54.8072 14.9148 54.4949 13.8882 53.9019C12.8615 53.309 12.009 52.4564 11.4161 51.4297H23.0841ZM64.557 30.6736L69.8145 44.6737H59.2995L64.557 30.6736ZM64.557 54.8077C63.3714 54.8072 62.2068 54.4949 61.1802 53.9019C60.1536 53.309 59.301 52.4564 58.7082 51.4297H70.3762C69.78 52.4469 68.9308 53.2925 67.9111 53.8845C66.8914 54.4764 65.736 54.7944 64.557 54.8077Z" fill="#9669F5"/>
</svg>
