<svg width="82" height="82" viewBox="0 0 82 82" fill="none" xmlns="http://www.w3.org/2000/svg">
<path d="M65.9063 38.1421C65.9133 36.3961 65.4587 34.6792 64.5887 33.1654C63.7186 31.6515 62.4641 30.3945 60.9519 29.5214C60.9892 29.0929 60.9892 28.6619 60.9519 28.2333C60.9519 26.2623 60.169 24.3721 58.7753 22.9784C57.3816 21.5847 55.4913 20.8017 53.5203 20.8017H53.0744C52.6619 19.658 51.9751 18.633 51.0742 17.8165C50.1733 17.0001 49.0858 16.4171 47.9072 16.1188C46.7285 15.8205 45.4947 15.8159 44.3139 16.1054C43.133 16.395 42.0413 16.9698 41.1343 17.7795C40.2273 16.9698 39.1356 16.395 37.9547 16.1054C36.7739 15.8159 35.5401 15.8205 34.3614 16.1188C33.1828 16.4171 32.0953 17.0001 31.1944 17.8165C30.2935 18.633 29.6067 19.658 29.1942 20.8017H28.7483C26.7773 20.8017 24.887 21.5847 23.4933 22.9784C22.0997 24.3721 21.3167 26.2623 21.3167 28.2333C21.2794 28.6619 21.2794 29.0929 21.3167 29.5214C19.9108 30.3161 18.7204 31.4424 17.8492 32.8022C16.978 34.162 16.4523 35.7141 16.318 37.3235C16.1837 38.9329 16.4448 40.5507 17.0785 42.0361C17.7123 43.5215 18.6995 44.8295 19.9542 45.8462C19.1424 47.3604 18.7382 49.0597 18.7814 50.7773C18.8246 52.4949 19.3136 54.1718 20.2005 55.6433C21.0874 57.1148 22.3417 58.3304 23.8403 59.1708C25.3388 60.0113 27.0302 60.4476 28.7483 60.4369H29.1942C29.6067 61.5806 30.2935 62.6056 31.1944 63.4221C32.0953 64.2386 33.1828 64.8215 34.3614 65.1198C35.5401 65.4182 36.7739 65.4228 37.9547 65.1332C39.1356 64.8437 40.2273 64.2688 41.1343 63.4591C42.0413 64.2688 43.133 64.8437 44.3139 65.1332C45.4947 65.4228 46.7285 65.4182 47.9072 65.1198C49.0858 64.8215 50.1733 64.2386 51.0742 63.4221C51.9751 62.6056 52.6619 61.5806 53.0744 60.4369H53.5203C55.2279 60.4261 56.9038 59.9742 58.3853 59.125C59.8668 58.2758 61.1037 57.0582 61.976 55.5902C62.8484 54.1222 63.3265 52.4536 63.3641 50.7464C63.4017 49.0392 62.9974 47.3512 62.1905 45.8462C63.346 44.9211 64.2795 43.7489 64.9225 42.4157C65.5655 41.0826 65.9017 39.6223 65.9063 38.1421ZM38.6571 32.073C38.1176 31.7644 37.5543 31.4993 36.9726 31.2803C36.3485 31.07 35.6664 31.1163 35.0764 31.409C34.4864 31.7017 34.0368 32.2168 33.8266 32.8409C33.6163 33.465 33.6626 34.1471 33.9553 34.7371C34.248 35.3271 34.763 35.7767 35.3872 35.9869C36.3408 36.3317 37.1656 36.9607 37.7504 37.7891C38.3351 38.6175 38.6516 39.6053 38.6571 40.6193V44.459C38.1176 44.1504 37.5543 43.8853 36.9726 43.6663C36.3485 43.456 35.6664 43.5023 35.0764 43.795C34.4864 44.0877 34.0368 44.6028 33.8266 45.2269C33.6163 45.8511 33.6626 46.5332 33.9553 47.1232C34.248 47.7132 34.763 48.1627 35.3872 48.373C36.3408 48.7177 37.1656 49.3467 37.7504 50.1751C38.3351 51.0035 38.6516 51.9914 38.6571 53.0053V57.9597C38.6571 58.6167 38.3961 59.2468 37.9315 59.7114C37.467 60.176 36.8369 60.4369 36.1799 60.4369C35.7006 60.4338 35.2326 60.2917 34.8325 60.0279C34.4323 59.7641 34.1173 59.3899 33.9256 58.9506C34.341 58.7069 34.7384 58.4337 35.1147 58.1331C35.3652 57.9249 35.5722 57.6694 35.724 57.3812C35.8757 57.093 35.9692 56.7777 35.9991 56.4534C36.029 56.1291 35.9947 55.802 35.8982 55.4909C35.8018 55.1798 35.6449 54.8908 35.4367 54.6403C35.2285 54.3898 34.973 54.1828 34.6848 54.031C34.3966 53.8793 34.0813 53.7858 33.757 53.7559C33.4327 53.726 33.1056 53.7602 32.7945 53.8567C32.4834 53.9532 32.1944 54.11 31.9439 54.3182C31.0494 55.0713 29.9175 55.4837 28.7483 55.4825C27.4343 55.4825 26.1741 54.9605 25.245 54.0314C24.3159 53.1023 23.7939 51.8421 23.7939 50.5281C23.8057 49.5957 24.0805 48.6855 24.5866 47.9023C25.1425 48.002 25.7063 48.0517 26.2711 48.0509C26.9281 48.0509 27.5582 47.7899 28.0227 47.3254C28.4873 46.8608 28.7483 46.2307 28.7483 45.5737C28.7483 44.9167 28.4873 44.2866 28.0227 43.8221C27.5582 43.3575 26.9281 43.0965 26.2711 43.0965C25.6859 43.0999 25.1056 42.9905 24.5618 42.7745C23.6709 42.4532 22.8907 41.8832 22.3137 41.1321C21.7368 40.381 21.3872 39.4803 21.3063 38.5366C21.2255 37.593 21.4169 36.6459 21.8578 35.8077C22.2986 34.9694 22.9705 34.2751 23.7939 33.807C24.1459 34.1309 24.5274 34.4211 24.9334 34.674C25.505 35.0025 26.1837 35.0905 26.8201 34.9186C27.4566 34.7467 27.9987 34.329 28.3272 33.7575C28.6557 33.1859 28.7436 32.5072 28.5718 31.8708C28.3999 31.2343 27.9822 30.6922 27.4106 30.3637C27.0619 30.1713 26.771 29.889 26.5683 29.5462C26.3393 29.1485 26.2357 28.6909 26.2711 28.2333C26.2711 27.5763 26.5321 26.9462 26.9966 26.4817C27.4612 26.0171 28.0913 25.7561 28.7483 25.7561C28.9209 25.732 29.0959 25.732 29.2685 25.7561C29.3996 26.1541 29.5569 26.543 29.7392 26.9204C29.901 27.2042 30.1174 27.4533 30.3759 27.6531C30.6344 27.853 30.9299 27.9998 31.2453 28.085C31.5607 28.1702 31.8899 28.1921 32.2139 28.1495C32.5379 28.107 32.8502 28.0007 33.1329 27.8369C33.6821 27.5065 34.0819 26.9761 34.2482 26.3571C34.4145 25.738 34.3344 25.0787 34.0247 24.5175C33.8169 24.1375 33.7062 23.712 33.7027 23.2789C33.7027 22.6219 33.9637 21.9918 34.4282 21.5272C34.8928 21.0627 35.5229 20.8017 36.1799 20.8017C36.8369 20.8017 37.467 21.0627 37.9315 21.5272C38.3961 21.9918 38.6571 22.6219 38.6571 23.2789V32.073ZM57.7068 42.7745C57.163 42.9905 56.5827 43.0999 55.9975 43.0965C55.3405 43.0965 54.7104 43.3575 54.2459 43.8221C53.7813 44.2866 53.5203 44.9167 53.5203 45.5737C53.5203 46.2307 53.7813 46.8608 54.2459 47.3254C54.7104 47.7899 55.3405 48.0509 55.9975 48.0509C56.5623 48.0517 57.1261 48.002 57.682 47.9023C58.1881 48.6855 58.4629 49.5957 58.4747 50.5281C58.4747 51.8421 57.9527 53.1023 57.0236 54.0314C56.0945 54.9605 54.8343 55.4825 53.5203 55.4825C52.3511 55.4837 51.2192 55.0713 50.3247 54.3182C49.8188 53.8978 49.1666 53.6955 48.5116 53.7559C47.8566 53.8163 47.2523 54.1344 46.8319 54.6403C46.4114 55.1462 46.2091 55.7984 46.2695 56.4534C46.3299 57.1084 46.648 57.7127 47.1539 58.1331C47.5302 58.4337 47.9276 58.7069 48.343 58.9506C48.1513 59.3899 47.8363 59.7641 47.4361 60.0279C47.036 60.2917 46.568 60.4338 46.0887 60.4369C45.4317 60.4369 44.8016 60.176 44.3371 59.7114C43.8725 59.2468 43.6115 58.6167 43.6115 57.9597V53.0053C43.617 51.9914 43.9335 51.0035 44.5182 50.1751C45.103 49.3467 45.9278 48.7177 46.8814 48.373C47.5056 48.1627 48.0206 47.7132 48.3133 47.1232C48.606 46.5332 48.6523 45.8511 48.442 45.2269C48.2318 44.6028 47.7822 44.0877 47.1922 43.795C46.6022 43.5023 45.9201 43.456 45.296 43.6663C44.7143 43.8853 44.151 44.1504 43.6115 44.459V40.6193C43.617 39.6053 43.9335 38.6175 44.5182 37.7891C45.103 36.9607 45.9278 36.3317 46.8814 35.9869C47.5056 35.7767 48.0206 35.3271 48.3133 34.7371C48.606 34.1471 48.6523 33.465 48.442 32.8409C48.2318 32.2168 47.7822 31.7017 47.1922 31.409C46.6022 31.1163 45.9201 31.07 45.296 31.2803C44.7143 31.4993 44.151 31.7644 43.6115 32.073V23.2789C43.6115 22.6219 43.8725 21.9918 44.3371 21.5272C44.8016 21.0627 45.4317 20.8017 46.0887 20.8017C46.7457 20.8017 47.3758 21.0627 47.8404 21.5272C48.3049 21.9918 48.5659 22.6219 48.5659 23.2789C48.5624 23.712 48.4517 24.1375 48.2439 24.5175C48.0791 24.7988 47.9714 25.1098 47.927 25.4327C47.8826 25.7557 47.9024 26.0842 47.9853 26.3995C48.0681 26.7148 48.2124 27.0106 48.4098 27.27C48.6072 27.5295 48.8539 27.7474 49.1357 27.9113C49.4184 28.0751 49.7307 28.1813 50.0547 28.2239C50.3787 28.2664 50.7079 28.2445 51.0233 28.1593C51.3388 28.0741 51.6342 27.9273 51.8927 27.7275C52.1512 27.5276 52.3676 27.2786 52.5294 26.9947C52.7148 26.5932 52.8721 26.1794 53.0001 25.7561C53.1727 25.732 53.3477 25.732 53.5203 25.7561C54.1773 25.7561 54.8074 26.0171 55.272 26.4817C55.7365 26.9462 55.9975 27.5763 55.9975 28.2333C55.9937 28.7189 55.8473 29.1927 55.5764 29.5958C55.3738 29.9172 55.0924 30.1816 54.7589 30.3637C54.1873 30.6922 53.7697 31.2343 53.5978 31.8708C53.4259 32.5072 53.5139 33.1859 53.8423 33.7575C54.1708 34.329 54.713 34.7467 55.3494 34.9186C55.9859 35.0905 56.6645 35.0025 57.2361 34.674C57.6809 34.4335 58.0965 34.1426 58.4747 33.807C59.3009 34.2669 59.9782 34.9535 60.4267 35.7859C60.8752 36.6183 61.0761 37.5616 61.0058 38.5045C60.9355 39.4474 60.5968 40.3504 60.0298 41.1071C59.4628 41.8637 58.6911 42.4423 57.8059 42.7745H57.7068Z" fill="#53BDCA"/>
</svg>
