<svg width="82" height="82" viewBox="0 0 82 82" fill="none" xmlns="http://www.w3.org/2000/svg">
<path d="M41.281 33.322C39.1915 32.2077 36.7709 31.8823 34.4614 32.4053C32.1518 32.9282 30.1074 34.2646 28.7018 36.1703C27.2961 38.0759 26.6229 40.4237 26.8051 42.7847C26.9874 45.1457 28.0129 47.3623 29.6945 49.0297L38.8826 58.2179C39.1967 58.5345 39.5703 58.7858 39.9819 58.9573C40.3936 59.1288 40.8351 59.2171 41.281 59.2171C41.7269 59.2171 42.1685 59.1288 42.5801 58.9573C42.9918 58.7858 43.3654 58.5345 43.6794 58.2179L52.8676 49.0297C54.5491 47.3623 55.5746 45.1457 55.7569 42.7847C55.9392 40.4237 55.266 38.0759 53.8603 36.1703C52.4546 34.2646 50.4102 32.9282 48.1007 32.4053C45.7911 31.8823 43.3705 32.2077 41.281 33.322V33.322ZM48.037 44.2329L41.281 50.9889L34.525 44.2329C33.9433 43.6502 33.6166 42.8606 33.6166 42.0372C33.6166 41.2139 33.9433 40.4242 34.525 39.8415C35.1077 39.2598 35.8974 38.9331 36.7207 38.9331C37.544 38.9331 38.3337 39.2598 38.9164 39.8415C39.2304 40.1581 39.6041 40.4094 40.0157 40.5809C40.4273 40.7524 40.8689 40.8407 41.3148 40.8407C41.7607 40.8407 42.2023 40.7524 42.6139 40.5809C43.0255 40.4094 43.3991 40.1581 43.7132 39.8415C44.3031 39.2977 45.0805 39.0031 45.8827 39.0195C46.6849 39.0358 47.4497 39.3617 48.017 39.9291C48.5844 40.4964 48.9103 41.2612 48.9266 42.0634C48.9429 42.8656 48.6484 43.643 48.1046 44.2329H48.037ZM64.927 18.6614H43.7132L42.6322 15.2834C41.9314 13.3013 40.6316 11.5862 38.9127 10.3757C37.1938 9.16525 35.141 8.51931 33.0387 8.52742H17.635C14.9473 8.52742 12.3697 9.59511 10.4692 11.4956C8.56866 13.3961 7.50098 15.9737 7.50098 18.6614V62.5755C7.50098 65.2632 8.56866 67.8408 10.4692 69.7413C12.3697 71.6418 14.9473 72.7095 17.635 72.7095H64.927C67.6147 72.7095 70.1924 71.6418 72.0929 69.7413C73.9934 67.8408 75.061 65.2632 75.061 62.5755V28.7954C75.061 26.1077 73.9934 23.5301 72.0929 21.6296C70.1924 19.7291 67.6147 18.6614 64.927 18.6614ZM68.305 62.5755C68.305 63.4714 67.9491 64.3306 67.3156 64.9641C66.6822 65.5976 65.8229 65.9535 64.927 65.9535H17.635C16.7391 65.9535 15.8799 65.5976 15.2464 64.9641C14.6129 64.3306 14.257 63.4714 14.257 62.5755V18.6614C14.257 17.7655 14.6129 16.9063 15.2464 16.2728C15.8799 15.6393 16.7391 15.2834 17.635 15.2834H33.0387C33.7469 15.2816 34.4377 15.5024 35.0136 15.9146C35.5894 16.3268 36.0212 16.9095 36.2478 17.5805L38.0719 23.1204C38.2985 23.7913 38.7303 24.3741 39.3061 24.7863C39.882 25.1985 40.5728 25.4193 41.281 25.4174H64.927C65.8229 25.4174 66.6822 25.7733 67.3156 26.4068C67.9491 27.0403 68.305 27.8995 68.305 28.7954V62.5755Z" fill="#F976B0"/>
</svg>
