<svg width="82" height="82" viewBox="0 0 82 82" fill="none" xmlns="http://www.w3.org/2000/svg">
<path d="M34.1549 58.1857H37.5329V61.5637C37.5329 62.4596 37.8888 63.3188 38.5223 63.9523C39.1558 64.5858 40.015 64.9417 40.9109 64.9417C41.8068 64.9417 42.666 64.5858 43.2995 63.9523C43.933 63.3188 44.2889 62.4596 44.2889 61.5637V58.1857H47.6669C48.5628 58.1857 49.422 57.8298 50.0555 57.1963C50.689 56.5628 51.0449 55.7036 51.0449 54.8077C51.0449 53.9118 50.689 53.0526 50.0555 52.4191C49.422 51.7856 48.5628 51.4297 47.6669 51.4297H44.2889V48.0517C44.2889 47.1558 43.933 46.2966 43.2995 45.6631C42.666 45.0296 41.8068 44.6737 40.9109 44.6737C40.015 44.6737 39.1558 45.0296 38.5223 45.6631C37.8888 46.2966 37.5329 47.1558 37.5329 48.0517V51.4297H34.1549C33.259 51.4297 32.3998 51.7856 31.7663 52.4191C31.1328 53.0526 30.7769 53.9118 30.7769 54.8077C30.7769 55.7036 31.1328 56.5628 31.7663 57.1963C32.3998 57.8298 33.259 58.1857 34.1549 58.1857V58.1857ZM64.5569 21.0276H57.8009V17.6496C57.8009 14.9619 56.7332 12.3843 54.8327 10.4838C52.9322 8.58331 50.3546 7.51563 47.6669 7.51562H34.1549C31.4672 7.51563 28.8896 8.58331 26.9891 10.4838C25.0886 12.3843 24.0209 14.9619 24.0209 17.6496V21.0276H17.2649C14.5772 21.0276 11.9995 22.0953 10.099 23.9958C8.19855 25.8963 7.13086 28.4739 7.13086 31.1617V64.9417C7.13086 67.6294 8.19855 70.207 10.099 72.1075C11.9995 74.008 14.5772 75.0757 17.2649 75.0757H64.5569C67.2446 75.0757 69.8223 74.008 71.7227 72.1075C73.6232 70.207 74.6909 67.6294 74.6909 64.9417V31.1617C74.6909 28.4739 73.6232 25.8963 71.7227 23.9958C69.8223 22.0953 67.2446 21.0276 64.5569 21.0276ZM30.7769 17.6496C30.7769 16.7537 31.1328 15.8945 31.7663 15.261C32.3998 14.6275 33.259 14.2716 34.1549 14.2716H47.6669C48.5628 14.2716 49.422 14.6275 50.0555 15.261C50.689 15.8945 51.0449 16.7537 51.0449 17.6496V21.0276H30.7769V17.6496ZM67.9349 64.9417C67.9349 65.8376 67.579 66.6968 66.9455 67.3303C66.312 67.9638 65.4528 68.3197 64.5569 68.3197H17.2649C16.369 68.3197 15.5098 67.9638 14.8763 67.3303C14.2428 66.6968 13.8869 65.8376 13.8869 64.9417V41.2957H67.9349V64.9417ZM67.9349 34.5397H13.8869V31.1617C13.8869 30.2657 14.2428 29.4065 14.8763 28.773C15.5098 28.1395 16.369 27.7836 17.2649 27.7836H64.5569C65.4528 27.7836 66.312 28.1395 66.9455 28.773C67.579 29.4065 67.9349 30.2657 67.9349 31.1617V34.5397Z" fill="#26CDDF"/>
</svg>
