<svg width="82" height="82" viewBox="0 0 82 82" fill="none" xmlns="http://www.w3.org/2000/svg">
<path d="M47.6669 37.9173H44.2889V34.5393C44.2889 33.6434 43.933 32.7842 43.2995 32.1507C42.666 31.5172 41.8068 31.1613 40.9109 31.1613C40.015 31.1613 39.1558 31.5172 38.5223 32.1507C37.8888 32.7842 37.5329 33.6434 37.5329 34.5393V37.9173H34.1549C33.259 37.9173 32.3998 38.2732 31.7663 38.9067C31.1328 39.5402 30.7769 40.3994 30.7769 41.2953C30.7769 42.1912 31.1328 43.0504 31.7663 43.6839C32.3998 44.3174 33.259 44.6733 34.1549 44.6733H37.5329V48.0513C37.5329 48.9472 37.8888 49.8065 38.5223 50.44C39.1558 51.0735 40.015 51.4294 40.9109 51.4294C41.8068 51.4294 42.666 51.0735 43.2995 50.44C43.933 49.8065 44.2889 48.9472 44.2889 48.0513V44.6733H47.6669C48.5628 44.6733 49.422 44.3174 50.0555 43.6839C50.689 43.0504 51.0449 42.1912 51.0449 41.2953C51.0449 40.3994 50.689 39.5402 50.0555 38.9067C49.422 38.2732 48.5628 37.9173 47.6669 37.9173ZM68.4754 17.6493C64.8734 14.0845 60.116 11.9245 55.0614 11.559C50.0069 11.1936 44.9882 12.6467 40.9109 15.6563C36.6129 12.4595 31.2633 11.0099 25.9393 11.5994C20.6153 12.189 15.7125 14.7739 12.218 18.8336C8.7236 22.8933 6.89717 28.1263 7.10653 33.4787C7.3159 38.8311 9.54551 43.9054 13.3464 47.6798L33.6144 68.1167C35.5145 70.0145 38.0902 71.0804 40.7758 71.0804C43.4613 71.0804 46.037 70.0145 47.9371 68.1167L68.2052 47.6798C70.2013 45.7295 71.7924 43.4039 72.8869 40.8367C73.9814 38.2695 74.5578 35.5114 74.5829 32.7207C74.608 29.9301 74.0813 27.162 73.0332 24.5755C71.9851 21.989 70.4361 19.6352 68.4754 17.6493V17.6493ZM63.7124 42.8492L43.4444 63.1172C43.1304 63.4339 42.7567 63.6852 42.3451 63.8567C41.9335 64.0282 41.4919 64.1165 41.046 64.1165C40.6001 64.1165 40.1585 64.0282 39.7469 63.8567C39.3353 63.6852 38.9617 63.4339 38.6476 63.1172L18.3796 42.8492C15.7304 40.1412 14.247 36.5035 14.247 32.7152C14.247 28.9269 15.7304 25.2892 18.3796 22.5812C21.0792 19.9159 24.72 18.4214 28.5136 18.4214C32.3072 18.4214 35.9481 19.9159 38.6476 22.5812C38.9617 22.8978 39.3353 23.1491 39.7469 23.3206C40.1585 23.4921 40.6001 23.5804 41.046 23.5804C41.4919 23.5804 41.9335 23.4921 42.3451 23.3206C42.7567 23.1491 43.1304 22.8978 43.4444 22.5812C46.1439 19.9159 49.7848 18.4214 53.5784 18.4214C57.372 18.4214 61.0129 19.9159 63.7124 22.5812C66.3819 25.2922 67.8782 28.9443 67.8782 32.749C67.8782 36.5537 66.3819 40.2058 63.7124 42.9168V42.8492Z" fill="#5EC971"/>
</svg>
