<svg width="82" height="82" viewBox="0 0 82 82" fill="none" xmlns="http://www.w3.org/2000/svg">
<path d="M64.1727 36.1344L61.6955 34.772L39.4007 22.3859H39.1282C38.9763 22.3217 38.8187 22.272 38.6575 22.2373H38.1868H37.7409C37.5717 22.272 37.4059 22.3217 37.2455 22.3859H36.973L14.6782 34.772C14.2969 34.988 13.9798 35.3013 13.7592 35.6799C13.5386 36.0586 13.4224 36.4889 13.4224 36.9271C13.4224 37.3653 13.5386 37.7957 13.7592 38.1743C13.9798 38.5529 14.2969 38.8662 14.6782 39.0823L20.8464 42.5008V54.2428C20.8464 56.2137 21.6294 58.104 23.0231 59.4977C24.4168 60.8914 26.307 61.6744 28.278 61.6744H48.0956C50.0666 61.6744 51.9569 60.8914 53.3506 59.4977C54.7443 58.104 55.5273 56.2137 55.5273 54.2428V42.5008L60.4817 39.7264V46.8112C60.4817 47.4682 60.7426 48.0982 61.2072 48.5628C61.6718 49.0274 62.3019 49.2884 62.9589 49.2884C63.6159 49.2884 64.2459 49.0274 64.7105 48.5628C65.1751 48.0982 65.4361 47.4682 65.4361 46.8112V38.2896C65.4353 37.8506 65.3179 37.4198 65.0959 37.0411C64.874 36.6624 64.5553 36.3495 64.1727 36.1344V36.1344ZM50.5728 54.2428C50.5728 54.8998 50.3119 55.5298 49.8473 55.9944C49.3827 56.459 48.7526 56.72 48.0956 56.72H28.278C27.621 56.72 26.9909 56.459 26.5264 55.9944C26.0618 55.5298 25.8008 54.8998 25.8008 54.2428V45.2505L36.973 51.4435L37.3446 51.5922H37.5675C37.7732 51.6181 37.9812 51.6181 38.1868 51.5922C38.3925 51.6181 38.6005 51.6181 38.8061 51.5922H39.0291C39.1606 51.5644 39.2863 51.5141 39.4007 51.4435L50.5728 45.2505V54.2428ZM38.1868 46.4643L20.995 36.9023L38.1868 27.3403L55.3786 36.9023L38.1868 46.4643Z" fill="#FDA801"/>
</svg>

