<svg width="82" height="82" viewBox="0 0 82 82" fill="none" xmlns="http://www.w3.org/2000/svg">
<path d="M41.1031 7.51562C34.5514 7.52807 28.1447 9.44552 22.6633 13.0344C17.182 16.6233 12.8626 21.7287 10.2313 27.7288C7.6 33.7289 6.77032 40.3647 7.84335 46.828C8.91637 53.2913 11.8458 59.303 16.2748 64.131V64.131C19.438 67.5598 23.2772 70.2963 27.5503 72.1679C31.8235 74.0396 36.438 75.0059 41.1031 75.0059C45.7682 75.0059 50.3827 74.0396 54.6558 72.1679C58.929 70.2963 62.7682 67.5598 65.9314 64.131V64.131C70.3604 59.303 73.2898 53.2913 74.3628 46.828C75.4359 40.3647 74.6062 33.7289 71.9749 27.7288C69.3436 21.7287 65.0242 16.6233 59.5428 13.0344C54.0615 9.44552 47.6548 7.52807 41.1031 7.51562V7.51562ZM41.1031 68.3197C34.1054 68.3091 27.3847 65.5844 22.3552 60.7192C23.8822 57.0018 26.4798 53.8223 29.818 51.5847C33.1562 49.3471 37.0843 48.1523 41.1031 48.1523C45.1219 48.1523 49.0499 49.3471 52.3881 51.5847C55.7264 53.8223 58.324 57.0018 59.851 60.7192C54.8214 65.5844 48.1007 68.3091 41.1031 68.3197ZM34.3471 34.5397C34.3471 33.2034 34.7433 31.8972 35.4857 30.7862C36.228 29.6752 37.2832 28.8093 38.5177 28.2979C39.7522 27.7866 41.1106 27.6528 42.4211 27.9135C43.7317 28.1741 44.9355 28.8176 45.8803 29.7624C46.8251 30.7073 47.4686 31.9111 47.7293 33.2216C47.99 34.5322 47.8562 35.8906 47.3448 37.1251C46.8335 38.3596 45.9675 39.4147 44.8565 40.1571C43.7455 40.8994 42.4393 41.2957 41.1031 41.2957C39.3113 41.2957 37.5929 40.5839 36.3259 39.3169C35.0589 38.0499 34.3471 36.3315 34.3471 34.5397ZM64.4451 54.8077C61.427 49.6453 56.7818 45.6297 51.2371 43.39C52.9571 41.4398 54.0778 39.0346 54.4647 36.4632C54.8516 33.8918 54.4883 31.2634 53.4184 28.8933C52.3486 26.5233 50.6175 24.5122 48.433 23.1016C46.2486 21.691 43.7034 20.9407 41.1031 20.9407C38.5027 20.9407 35.9576 21.691 33.7731 23.1016C31.5886 24.5122 29.8576 26.5233 28.7877 28.8933C27.7178 31.2634 27.3546 33.8918 27.7415 36.4632C28.1284 39.0346 29.2491 41.4398 30.9691 43.39C25.4244 45.6297 20.7792 49.6453 17.7611 54.8077C15.3557 50.7105 14.0849 46.0467 14.0791 41.2957C14.0791 34.1284 16.9262 27.2548 21.9942 22.1868C27.0622 17.1188 33.9359 14.2716 41.1031 14.2716C48.2703 14.2716 55.144 17.1188 60.212 22.1868C65.28 27.2548 68.1271 34.1284 68.1271 41.2957C68.1213 46.0467 66.8504 50.7105 64.4451 54.8077V54.8077Z" fill="#5BC36D"/>
</svg>
